<?xml version="1.0" encoding="UTF-8" standalone="no" ?>
<!DOCTYPE svg PUBLIC "-//W3C//DTD SVG 1.1//EN" "http://www.w3.org/Graphics/SVG/1.1/DTD/svg11.dtd">
<svg xmlns="http://www.w3.org/2000/svg" xmlns:xlink="http://www.w3.org/1999/xlink" version="1.1" width="383.7608" height="288.288" xml:space="preserve">
<desc>Created with Fabric.js 1.6.0-rc.1</desc>
<defs></defs>
<g style="stroke: none; stroke-width: 1; stroke-dasharray: none; stroke-linecap: butt; stroke-linejoin: miter; stroke-miterlimit: 10; fill: none; fill-rule: nonzero; opacity: 1;" transform="translate(10 10) scale(5.24 5.24)" >
  <path d="M 38.637 19.345 c 0 0 -2.971 -14.649 -11.748 -17.622 C 18.116 -1.248 7.571 0.026 0 2.502 c 0 0 4.811 3.68 7.571 6.653 c 2.76 2.971 7.833 9.128 12.641 10.291 C 24.884 20.576 30.925 20.478 38.637 19.345" style="stroke: none; stroke-width: 1; stroke-dasharray: none; stroke-linecap: butt; stroke-linejoin: miter; stroke-miterlimit: 10; fill: #168A3E; fill-rule: nonzero; opacity: 1;" transform=" matrix(1 0 0 1 0 0) " stroke-linecap="round" />
  <path d="M 68.424 37.157 c 0 0 -0.926 -11.71 -7.489 -14.863 c -6.563 -3.151 -14.486 -3.174 -20.599 -2.001 c 0.372 1.66 1.539 4.925 4.414 8.283 c 2.549 2.973 6.273 5.38 9.837 6.935 C 58.152 37.065 62.297 37.307 68.424 37.157" style="stroke: none; stroke-width: 1; stroke-dasharray: none; stroke-linecap: butt; stroke-linejoin: miter; stroke-miterlimit: 10; fill: #168A3E; fill-rule: nonzero; opacity: 1;" transform=" matrix(1 0 0 1 0 0) " stroke-linecap="round" />
  <path d="M 38.85 20.478 c 0 0 -16.059 1.638 -22.502 5.732 c -5.883 3.737 -10.475 14.01 -5.52 23.99 c 0 0 4.122 -2.456 8.259 -3.916 c 3.787 -1.337 16.296 -5.496 19.34 -11.017 C 41.467 29.747 39.841 23.804 38.85 20.478" style="stroke: none; stroke-width: 1; stroke-dasharray: none; stroke-linecap: butt; stroke-linejoin: miter; stroke-miterlimit: 10; fill: #48B84E; fill-rule: nonzero; opacity: 1;" transform=" matrix(1 0 0 1 0 0) " stroke-linecap="round" />
  <path d="M 53.347 0.574 c 0 0 2.324 7.667 1.294 10.346 c -1.123 2.925 -5.464 7.425 -14.599 8.064 c 0 0 -3.938 -10.824 -0.059 -14.358 C 43.864 1.091 53.347 0.574 53.347 0.574" style="stroke: none; stroke-width: 1; stroke-dasharray: none; stroke-linecap: butt; stroke-linejoin: miter; stroke-miterlimit: 10; fill: #168A3E; fill-rule: nonzero; opacity: 1;" transform=" matrix(1 0 0 1 0 0) " stroke-linecap="round" />
</g>
<g style="stroke: none; stroke-width: 1; stroke-dasharray: none; stroke-linecap: butt; stroke-linejoin: miter; stroke-miterlimit: 10; fill: #dba372; fill-rule: nonzero; opacity: 1;" transform="translate(89.77 39.56999999999998) scale(0.36 0.36)" >
  <path d="M 477.6 252.35 c -17.43 48.19 -41.7 92.61 -72.11 132.02 c -38.03 49.27 -85.8 90.74 -141.97 123.28 L 256 512 l -7.52 -4.35 c -56.17 -32.54 -103.94 -74.01 -141.97 -123.28 C 76.1 344.96 51.83 300.54 34.4 252.35 C 4.71 170.25 5.12 106.08 5.15 103.39 l 0.09 -7.36 L 132.55 0 h 246.9 l 127.31 96.03 l 0.09 7.36 C 506.88 106.08 507.29 170.25 477.6 252.35 z" style="stroke: none; stroke-width: 1; stroke-dasharray: none; stroke-linecap: butt; stroke-linejoin: miter; stroke-miterlimit: 10; fill: #8B8892; fill-rule: nonzero; opacity: 1;" transform=" matrix(1 0 0 1 0 0) " stroke-linecap="round" />
  <path d="M 477.6 252.35 c -17.43 48.19 -41.7 92.61 -72.11 132.02 c -38.03 49.27 -85.8 90.74 -141.97 123.28 L 256 512 V 0 h 123.45 l 127.31 96.03 l 0.09 7.36 C 506.88 106.08 507.29 170.25 477.6 252.35 z" style="stroke: none; stroke-width: 1; stroke-dasharray: none; stroke-linecap: butt; stroke-linejoin: miter; stroke-miterlimit: 10; fill: #57555C; fill-rule: nonzero; opacity: 1;" transform=" matrix(1 0 0 1 0 0) " stroke-linecap="round" />
  <path d="M 312.04 163.134 v 34.263 l -28.384 -0.008 v -33.176 c 0 -7.044 -3.095 -13.421 -8.102 -18.038 c -5.003 -4.617 -11.919 -7.471 -19.556 -7.471 c -15.275 0 -27.658 11.421 -27.658 25.509 v 33.151 h -28.384 v -34.23 c 0 -29.77 25.09 -53.906 56.043 -53.906 C 286.95 109.228 312.04 133.364 312.04 163.134 z" style="stroke: none; stroke-width: 1; stroke-dasharray: none; stroke-linecap: butt; stroke-linejoin: miter; stroke-miterlimit: 10; fill: #C8C6CD; fill-rule: nonzero; opacity: 1;" transform=" matrix(1 0 0 1 0 0) " stroke-linecap="round" />
  <path d="M 312.04 163.134 v 34.263 l -28.384 -0.008 v -33.176 c 0 -7.044 -3.095 -13.421 -8.102 -18.038 c -5.003 -4.617 -11.919 -7.471 -19.556 -7.471 v -29.475 C 286.95 109.228 312.04 133.364 312.04 163.134 z" style="stroke: none; stroke-width: 1; stroke-dasharray: none; stroke-linecap: butt; stroke-linejoin: miter; stroke-miterlimit: 10; fill: #AEADB3; fill-rule: nonzero; opacity: 1;" transform=" matrix(1 0 0 1 0 0) " stroke-linecap="round" />
  <rect x="178.1" y="191.14" rx="0" ry="0" width="155.8" height="130.53" style="stroke: none; stroke-width: 1; stroke-dasharray: none; stroke-linecap: butt; stroke-linejoin: miter; stroke-miterlimit: 10; fill: #FDC000; fill-rule: nonzero; opacity: 1;" transform=" matrix(1 0 0 1 0 0) "/>
  <path d="M 266.357 258.065 l 1.859 21.323 H 243.78 l 1.859 -21.323 c -2.56 -2.614 -4.144 -6.194 -4.144 -10.147 c 0 -8.007 6.492 -14.499 14.503 -14.499 s 14.503 6.493 14.503 14.499 C 270.501 251.872 268.921 255.452 266.357 258.065 z" style="stroke: none; stroke-width: 1; stroke-dasharray: none; stroke-linecap: butt; stroke-linejoin: miter; stroke-miterlimit: 10; fill: #FF8900; fill-rule: nonzero; opacity: 1;" transform=" matrix(1 0 0 1 0 0) " stroke-linecap="round" />
  <rect x="256" y="191.14" rx="0" ry="0" width="77.9" height="130.53" style="stroke: none; stroke-width: 1; stroke-dasharray: none; stroke-linecap: butt; stroke-linejoin: miter; stroke-miterlimit: 10; fill: #D9A600; fill-rule: nonzero; opacity: 1;" transform=" matrix(1 0 0 1 0 0) "/>
  <path d="M 270.501 247.918 c 0 3.953 -1.581 7.534 -4.144 10.147 l 1.859 21.323 h -12.217 v -45.97 C 264.009 233.419 270.501 239.911 270.501 247.918 z" style="stroke: none; stroke-width: 1; stroke-dasharray: none; stroke-linecap: butt; stroke-linejoin: miter; stroke-miterlimit: 10; fill: #C06100; fill-rule: nonzero; opacity: 1;" transform=" matrix(1 0 0 1 0 0) " stroke-linecap="round" />
  <path d="M 355.89 43.12 H 156.03 l -99.92 73.7 l 0.2 7.82 c 0.05 2.21 1.65 54.95 25.82 121.15 c 14.21 38.93 33.34 74.48 56.86 105.68 c 29.49 39.14 65.96 71.44 108.39 96.01 l 7.51 4.35 l 1.11 -0.64 l 6.41 -3.71 c 42.41 -24.56 78.98 -56.85 108.69 -95.96 c 23.68 -31.18 43.06 -66.72 57.59 -105.63 c 24.7 -66.17 26.84 -118.89 26.92 -121.1 l 0.28 -7.91 L 355.89 43.12 z M 400.58 235.4 C 371.06 314.46 322.45 375.29 256 416.35 c -0.37 0.23 -0.74 0.46 -1.11 0.69 c -66.66 -40.87 -115.16 -101.58 -144.23 -180.57 c -17.56 -47.73 -22.52 -88.64 -23.87 -104.99 l 79.11 -58.36 h 180.12 l 79.04 58.3 C 423.57 147.69 418.3 187.95 400.58 235.4 z" style="stroke: none; stroke-width: 1; stroke-dasharray: none; stroke-linecap: butt; stroke-linejoin: miter; stroke-miterlimit: 10; fill: #E1E1E4; fill-rule: nonzero; opacity: 1;" transform=" matrix(1 0 0 1 0 0) " stroke-linecap="round" />
  <path d="M 455.89 116.88 l -0.28 7.91 c -0.08 2.21 -2.22 54.93 -26.92 121.1 c -14.53 38.91 -33.91 74.45 -57.59 105.63 c -29.71 39.11 -66.28 71.4 -108.69 95.96 l -6.41 3.71 v -34.84 c 66.45 -41.06 115.06 -101.89 144.58 -180.95 c 17.72 -47.45 22.99 -87.71 24.48 -103.98 l -79.04 -58.3 H 256 v -30 h 99.89 L 455.89 116.88 z" style="stroke: none; stroke-width: 1; stroke-dasharray: none; stroke-linecap: butt; stroke-linejoin: miter; stroke-miterlimit: 10; fill: #aca6bd; fill-rule: nonzero; opacity: 1;" transform=" matrix(1 0 0 1 0 0) " stroke-linecap="round" />
</g>
</svg>